<svg width="17" height="16" viewBox="0 0 17 16" fill="none" xmlns="http://www.w3.org/2000/svg">
<path d="M16.3333 8.04889C16.3333 3.60361 12.7516 -2.54302e-07 8.33332 -2.54302e-07C3.91504 -2.54302e-07 0.333321 3.60361 0.333321 8.04889C0.333321 12.0663 3.25881 15.3962 7.08332 16V10.3755H5.05207V8.04889H7.08332V6.27562C7.08332 4.25837 8.27766 3.1441 10.105 3.1441C10.9803 3.1441 11.8958 3.3013 11.8958 3.3013V5.28208H10.887C9.89324 5.28208 9.58332 5.90252 9.58332 6.53905V8.04889H11.8021L11.4474 10.3755H9.58332V16C13.4078 15.3962 16.3333 12.0663 16.3333 8.04889Z" fill="#191D23"/>
</svg>
